<svg width="662" height="196" viewBox="0 0 662 196" fill="none" xmlns="http://www.w3.org/2000/svg">
<g clip-path="url(#clip0_55_307)">
<path d="M15.5 107.5C44 134 52 151 92.6927 172.244C123.5 188.327 148.266 195.969 172.373 172.488C186.164 159.055 194.746 138.451 198.58 119.829C200.453 110.732 204.024 94.347 196.627 86.7036C186.286 76.0183 151.321 72.5933 141.852 86.6222C135.405 96.173 134.491 110.552 136.643 121.457C142.896 153.137 177.864 173.565 206.475 181.522C263.042 197.255 326.549 180.392 355.418 126.34C366.201 106.15 371.699 82.3125 373.73 59.6823C374.815 47.5956 376.781 26.523 366.324 17.0342C354.901 6.6686 329.785 17.0496 318.304 22.3245C301.243 30.1635 290.107 46.6384 302.189 64.2401C313.287 80.4082 332.894 91.3385 349.883 99.807C379.448 114.545 411.437 126.024 444.132 131.224C471.532 135.581 502.503 135.472 528.614 124.55C580.958 102.655 611.262 48.7425 646.629 8" stroke="white" stroke-width="30" stroke-linecap="round"/>
</g>
<defs>
<clipPath id="clip0_55_307">
<rect width="662" height="210" fill="white" transform="translate(0 -7)"/>
</clipPath>
</defs>
</svg>
